<svg width="130" height="30" viewBox="0 0 130 30" fill="none" xmlns="http://www.w3.org/2000/svg">
<path d="M129.83 15.6746H127.447V4.88818H129.83V15.6746ZM113.029 13.1172C114.272 12.5793 115.27 11.9848 116.005 11.3525C116.796 10.6825 117.333 10.0502 117.596 9.45566C117.87 8.86113 118.001 8.07787 118.001 7.1153V5.1996H120.384V7.1153C120.384 7.9835 120.497 8.7007 120.723 9.26692C120.949 9.83314 121.373 10.371 121.976 10.8901C122.823 11.645 123.934 12.3056 125.309 12.8718V15.2971C123.831 14.7309 122.541 14.042 121.42 13.2304C120.356 12.4377 119.612 11.7205 119.188 11.0977C118.708 11.9187 117.945 12.7114 116.909 13.4664C115.779 14.3062 114.479 15.0329 113.02 15.6368V13.1266L113.029 13.1172ZM129.999 24.6208H127.466V19.1002H114.15V17.0335H129.99V24.6208H129.999Z" fill="#1A202C"/>
<path d="M100.588 6.70018H105.711V8.78575H93.0542V6.70018H98.1585V4.61462H100.579V6.70018H100.588ZM107.736 24.3472V4.88829H110.119V24.3472H107.736ZM100.569 20.5536H106.606V22.5542L92.7246 22.658V20.5442H98.2527V18.1566C96.9908 17.9868 95.9737 17.5432 95.192 16.8166C94.4292 16.0805 94.0431 15.184 94.0431 14.127C94.0431 13.3343 94.2691 12.6266 94.7211 12.0132C95.1732 11.3903 95.8042 10.9091 96.6141 10.5599C97.424 10.2013 98.3375 10.0314 99.3546 10.0314C100.372 10.0314 101.285 10.2107 102.095 10.5599C102.914 10.8996 103.555 11.3809 104.007 12.0132C104.459 12.6266 104.685 13.3249 104.685 14.127C104.685 15.1745 104.308 16.0616 103.555 16.7883C102.801 17.496 101.803 17.949 100.56 18.1566V20.5442L100.569 20.5536ZM96.341 14.1365C96.341 14.8159 96.6141 15.3633 97.1509 15.7785C97.7065 16.1937 98.4411 16.3919 99.364 16.3919C100.287 16.3919 101.012 16.1843 101.558 15.7785C102.114 15.3633 102.387 14.8159 102.387 14.1365C102.387 13.457 102.114 12.938 101.558 12.5416C101.021 12.1264 100.287 11.9282 99.364 11.9282C98.4411 11.9282 97.7065 12.1359 97.1509 12.5416C96.6141 12.938 96.341 13.4759 96.341 14.1365Z" fill="#1A202C"/>
<path d="M85.4452 24.3471H83.0626V4.88818H85.4452V24.3471ZM74.4267 16.4862C73.2777 16.4862 72.2512 16.2597 71.3471 15.8067C70.4431 15.3349 69.7273 14.6837 69.1999 13.8438C68.6914 13.0039 68.4371 12.0508 68.4371 10.9844C68.4371 9.91807 68.6914 8.96494 69.1999 8.12505C69.7273 7.28516 70.4431 6.63402 71.3471 6.16217C72.2512 5.69032 73.2777 5.4544 74.4267 5.4544C75.5756 5.4544 76.6021 5.69032 77.5062 6.16217C78.4291 6.63402 79.1449 7.28516 79.6534 8.12505C80.162 8.96494 80.4163 9.91807 80.4163 10.9844C80.4163 12.0508 80.162 13.0039 79.6534 13.8438C79.1449 14.6837 78.4291 15.3349 77.5062 15.8067C76.6021 16.2597 75.5756 16.4862 74.4267 16.4862ZM74.4267 14.3723C75.5285 14.3723 76.4232 14.0703 77.0824 13.4569C77.7605 12.8341 78.0995 12.0036 78.0995 10.9844C78.0995 9.96525 77.7605 9.12537 77.0824 8.51197C76.4138 7.88913 75.5285 7.57771 74.4267 7.57771C73.3248 7.57771 72.4302 7.88913 71.7427 8.51197C71.074 9.12537 70.7444 9.94638 70.7444 10.9844C70.7444 12.0225 71.074 12.8341 71.7427 13.4569C72.4207 14.0703 73.3154 14.3723 74.4267 14.3723ZM81.9136 22.2521L68.0039 22.3559V20.1571H81.9136V22.2427V22.2521Z" fill="#1A202C"/>
<path d="M51.6469 12.013H65.3871V14.0797H49.2266V5.30334H65.3871V7.41722H51.6469V12.0224V12.013ZM48.0117 16.4672H66.5549V18.5811H58.4746V24.4414H56.092V18.5811H48.0117V16.4672Z" fill="#1A202C"/>
<path d="M38.4707 16.3542V21.4502H46.551V23.5641H28.0078V21.4502H36.0881V16.3542H29.0908V5.69995H45.4209V16.3542H38.4707ZM43.0853 7.81382H31.4546V14.2498H43.0853V7.81382Z" fill="#1A202C"/>
<g style="mix-blend-mode:plus-darker">
<path d="M11.0932 30C15.2749 30 18.6649 28.7367 18.6649 27.1783C18.6649 25.62 15.2749 24.3567 11.0932 24.3567C6.91146 24.3567 3.52148 25.62 3.52148 27.1783C3.52148 28.7367 6.91146 30 11.0932 30Z" fill="#CBD5E0"/>
</g>
<path d="M22.1878 10.9374C22.1878 4.89777 17.2153 0 11.0939 0C4.97247 0 0 4.89777 0 10.9374C0 18.5153 11.0939 27.5087 11.0939 27.5087C11.0939 27.5087 22.1878 18.6662 22.1878 10.9374Z" fill="#FF604A"/>
<path fill-rule="evenodd" clip-rule="evenodd" d="M12.6946 26.1213L11.8847 16.958C11.8565 16.3352 12.3085 15.7501 12.8077 15.3726C13.8342 14.5894 14.5122 13.1266 14.5122 11.4469C14.5122 8.93663 12.9772 5.74695 11.0842 5.74695C9.19131 5.74695 7.65625 8.93663 7.65625 11.4374C7.65625 13.1361 8.36257 14.6177 9.40792 15.4009C9.91646 15.7784 10.3591 16.3824 10.3308 17.0146L9.5586 26.1779C10.4815 27.0272 11.0842 27.5085 11.0842 27.5085C11.0842 27.5085 11.7435 27.0084 12.6852 26.1307L12.6946 26.1213Z" fill="url(#paint0_linear_1694_2741)"/>
<path fill-rule="evenodd" clip-rule="evenodd" d="M11.9471 7.31178C12.1301 7.12671 12.4283 7.12541 12.613 7.30887L12.2815 7.64394C12.613 7.30887 12.6132 7.30905 12.6134 7.30925L12.6138 7.30965L12.6147 7.31055L12.6167 7.31264L12.622 7.31806L12.6371 7.33388C12.6491 7.34665 12.6648 7.3639 12.6837 7.38572C12.7215 7.42935 12.7722 7.49127 12.8315 7.57224C12.9501 7.73423 13.1032 7.97232 13.2568 8.29237C13.5647 8.93406 13.8708 9.89761 13.9105 11.2253C13.951 12.5799 13.5956 13.4829 13.1951 14.0585C12.9969 14.3432 12.7929 14.5404 12.6324 14.6692C12.5522 14.7336 12.4829 14.7809 12.4305 14.8137C12.4044 14.8301 12.3824 14.8428 12.3653 14.8523C12.3568 14.8571 12.3495 14.861 12.3435 14.8641L12.3356 14.8682L12.3324 14.8698L12.331 14.8705L12.3303 14.8709C12.33 14.871 12.3297 14.8712 12.1214 14.448L12.3297 14.8712C12.0964 14.9864 11.8141 14.8904 11.6991 14.6567C11.5849 14.4248 11.6784 14.1445 11.9076 14.0276C11.9079 14.0274 11.9083 14.0272 11.9087 14.027C11.912 14.0251 11.9199 14.0206 11.9317 14.0133C11.9553 13.9985 11.9943 13.9723 12.0436 13.9327C12.1421 13.8537 12.2817 13.7211 12.4226 13.5187C12.7001 13.1199 13.004 12.4187 12.9692 11.2536C12.9335 10.0616 12.6605 9.22742 12.408 8.70129C12.2814 8.43742 12.159 8.24909 12.0723 8.13062C12.0289 8.07136 11.9943 8.02956 11.9726 8.00451C11.9618 7.99199 11.9541 7.98366 11.9502 7.97945L11.9473 7.97641C11.7653 7.79273 11.7649 7.49596 11.9471 7.31178ZM11.9076 14.0276C11.9092 14.0268 11.9108 14.026 11.9124 14.0252C11.9124 14.0252 11.9124 14.0251 11.9125 14.0251C11.9125 14.0251 11.9125 14.0251 11.9125 14.0251L11.9124 14.0252L11.9119 14.0254L11.9109 14.0259L11.9092 14.0268L11.9072 14.0278C11.9067 14.0281 11.9068 14.028 11.9076 14.0276Z" fill="#D7E4F7"/>
<defs>
<linearGradient id="paint0_linear_1694_2741" x1="18.5618" y1="16.5805" x2="2.63669" y2="16.6745" gradientUnits="userSpaceOnUse">
<stop stop-color="white"/>
<stop offset="1" stop-color="white"/>
</linearGradient>
</defs>
</svg>
