<svg width="138" height="38" viewBox="0 0 138 38" fill="none" xmlns="http://www.w3.org/2000/svg">
<g filter="url(#filter0_d_1488_5788)">
<path d="M133.83 15.6746H131.447V4.88818H133.83V15.6746ZM117.029 13.1172C118.272 12.5793 119.27 11.9848 120.005 11.3525C120.796 10.6825 121.333 10.0502 121.596 9.45566C121.87 8.86113 122.001 8.07787 122.001 7.1153V5.1996H124.384V7.1153C124.384 7.9835 124.497 8.7007 124.723 9.26692C124.949 9.83314 125.373 10.371 125.976 10.8901C126.823 11.645 127.934 12.3056 129.309 12.8718V15.2971C127.831 14.7309 126.541 14.042 125.42 13.2304C124.356 12.4377 123.612 11.7205 123.188 11.0977C122.708 11.9187 121.945 12.7114 120.909 13.4664C119.779 14.3062 118.479 15.0329 117.02 15.6368V13.1266L117.029 13.1172ZM133.999 24.6208H131.466V19.1002H118.15V17.0335H133.99V24.6208H133.999Z" fill="#1A202C"/>
<path d="M104.589 6.70018H109.712V8.78575H97.0552V6.70018H102.16V4.61462H104.58V6.70018H104.589ZM111.737 24.3472V4.88829H114.12V24.3472H111.737ZM104.57 20.5536H110.607V22.5542L96.7256 22.658V20.5442H102.254V18.1566C100.992 17.9868 99.9746 17.5432 99.193 16.8166C98.4302 16.0805 98.044 15.184 98.044 14.127C98.044 13.3343 98.2701 12.6266 98.7221 12.0132C99.1742 11.3903 99.8051 10.9091 100.615 10.5599C101.425 10.2013 102.338 10.0314 103.356 10.0314C104.373 10.0314 105.286 10.2107 106.096 10.5599C106.915 10.8996 107.556 11.3809 108.008 12.0132C108.46 12.6266 108.686 13.3249 108.686 14.127C108.686 15.1745 108.309 16.0616 107.556 16.7883C106.802 17.496 105.804 17.949 104.561 18.1566V20.5442L104.57 20.5536ZM100.342 14.1365C100.342 14.8159 100.615 15.3633 101.152 15.7785C101.707 16.1937 102.442 16.3919 103.365 16.3919C104.288 16.3919 105.013 16.1843 105.559 15.7785C106.115 15.3633 106.388 14.8159 106.388 14.1365C106.388 13.457 106.115 12.938 105.559 12.5416C105.022 12.1264 104.288 11.9282 103.365 11.9282C102.442 11.9282 101.707 12.1359 101.152 12.5416C100.615 12.938 100.342 13.4759 100.342 14.1365Z" fill="#1A202C"/>
<path d="M89.4452 24.3471H87.0626V4.88818H89.4452V24.3471ZM78.4267 16.4862C77.2777 16.4862 76.2512 16.2597 75.3471 15.8067C74.4431 15.3349 73.7273 14.6837 73.1999 13.8438C72.6914 13.0039 72.4371 12.0508 72.4371 10.9844C72.4371 9.91807 72.6914 8.96494 73.1999 8.12505C73.7273 7.28516 74.4431 6.63402 75.3471 6.16217C76.2512 5.69032 77.2777 5.4544 78.4267 5.4544C79.5756 5.4544 80.6021 5.69032 81.5062 6.16217C82.4291 6.63402 83.1449 7.28516 83.6534 8.12505C84.162 8.96494 84.4163 9.91807 84.4163 10.9844C84.4163 12.0508 84.162 13.0039 83.6534 13.8438C83.1449 14.6837 82.4291 15.3349 81.5062 15.8067C80.6021 16.2597 79.5756 16.4862 78.4267 16.4862ZM78.4267 14.3723C79.5285 14.3723 80.4232 14.0703 81.0824 13.4569C81.7605 12.8341 82.0995 12.0036 82.0995 10.9844C82.0995 9.96525 81.7605 9.12537 81.0824 8.51197C80.4138 7.88913 79.5285 7.57771 78.4267 7.57771C77.3248 7.57771 76.4302 7.88913 75.7427 8.51197C75.074 9.12537 74.7444 9.94638 74.7444 10.9844C74.7444 12.0225 75.074 12.8341 75.7427 13.4569C76.4207 14.0703 77.3154 14.3723 78.4267 14.3723ZM85.9136 22.2521L72.0039 22.3559V20.1571H85.9136V22.2427V22.2521Z" fill="#1A202C"/>
<path d="M55.6459 12.013H69.3861V14.0797H53.2256V5.30334H69.3861V7.41722H55.6459V12.0224V12.013ZM52.0107 16.4672H70.5539V18.5811H62.4737V24.4414H60.091V18.5811H52.0107V16.4672Z" fill="#1A202C"/>
<path d="M42.4707 16.3542V21.4502H50.551V23.5641H32.0078V21.4502H40.0881V16.3542H33.0908V5.69995H49.4209V16.3542H42.4707ZM47.0853 7.81382H35.4546V14.2498H47.0853V7.81382Z" fill="#1A202C"/>
<g style="mix-blend-mode:plus-darker">
<path d="M15.0942 30C19.2759 30 22.6659 28.7367 22.6659 27.1783C22.6659 25.62 19.2759 24.3567 15.0942 24.3567C10.9124 24.3567 7.52246 25.62 7.52246 27.1783C7.52246 28.7367 10.9124 30 15.0942 30Z" fill="#CBD5E0"/>
</g>
<path d="M26.1878 10.9374C26.1878 4.89777 21.2153 0 15.0939 0C8.97247 0 4 4.89777 4 10.9374C4 18.5153 15.0939 27.5087 15.0939 27.5087C15.0939 27.5087 26.1878 18.6662 26.1878 10.9374Z" fill="#FF604A"/>
<path fill-rule="evenodd" clip-rule="evenodd" d="M16.6946 26.1213L15.8847 16.958C15.8565 16.3352 16.3085 15.7501 16.8077 15.3726C17.8342 14.5894 18.5122 13.1266 18.5122 11.4469C18.5122 8.93663 16.9772 5.74695 15.0842 5.74695C13.1913 5.74695 11.6562 8.93663 11.6562 11.4374C11.6562 13.1361 12.3626 14.6177 13.4079 15.4009C13.9165 15.7784 14.3591 16.3824 14.3308 17.0146L13.5586 26.1779C14.4815 27.0272 15.0842 27.5085 15.0842 27.5085C15.0842 27.5085 15.7435 27.0084 16.6852 26.1307L16.6946 26.1213Z" fill="url(#paint0_linear_1488_5788)"/>
<path fill-rule="evenodd" clip-rule="evenodd" d="M15.9461 7.31178C16.1292 7.12671 16.4273 7.12541 16.612 7.30887L16.2805 7.64394C16.612 7.30887 16.6122 7.30905 16.6124 7.30925L16.6128 7.30965L16.6137 7.31055L16.6158 7.31264L16.6211 7.31806L16.6361 7.33388C16.6481 7.34665 16.6638 7.3639 16.6827 7.38572C16.7205 7.42935 16.7712 7.49127 16.8305 7.57224C16.9491 7.73423 17.1022 7.97232 17.2558 8.29237C17.5637 8.93406 17.8698 9.89761 17.9095 11.2253C17.95 12.5799 17.5947 13.4829 17.1941 14.0585C16.996 14.3432 16.7919 14.5404 16.6314 14.6692C16.5512 14.7336 16.4819 14.7809 16.4296 14.8137C16.4034 14.8301 16.3814 14.8428 16.3643 14.8523C16.3558 14.8571 16.3485 14.861 16.3426 14.8641L16.3346 14.8682L16.3314 14.8698L16.33 14.8705L16.3293 14.8709C16.329 14.871 16.3287 14.8712 16.1204 14.448L16.3287 14.8712C16.0955 14.9864 15.8131 14.8904 15.6981 14.6567C15.584 14.4248 15.6774 14.1445 15.9066 14.0276C15.9069 14.0274 15.9073 14.0272 15.9077 14.027C15.9111 14.0251 15.9189 14.0206 15.9307 14.0133C15.9543 13.9985 15.9933 13.9723 16.0426 13.9327C16.1411 13.8537 16.2808 13.7211 16.4216 13.5187C16.6992 13.1199 17.003 12.4187 16.9682 11.2536C16.9325 10.0616 16.6595 9.22742 16.407 8.70129C16.2804 8.43742 16.1581 8.24909 16.0713 8.13062C16.0279 8.07136 15.9934 8.02956 15.9717 8.00451C15.9608 7.99199 15.9532 7.98366 15.9492 7.97945L15.9463 7.97641C15.7643 7.79273 15.7639 7.49596 15.9461 7.31178ZM15.9066 14.0276C15.9082 14.0268 15.9098 14.026 15.9114 14.0252C15.9114 14.0252 15.9115 14.0251 15.9115 14.0251C15.9115 14.0251 15.9115 14.0251 15.9115 14.0251L15.9114 14.0252L15.9109 14.0254L15.9099 14.0259L15.9082 14.0268L15.9062 14.0278C15.9057 14.0281 15.9059 14.028 15.9066 14.0276Z" fill="#D7E4F7"/>
</g>
<defs>
<filter id="filter0_d_1488_5788" x="0" y="0" width="137.999" height="38" filterUnits="userSpaceOnUse" color-interpolation-filters="sRGB">
<feFlood flood-opacity="0" result="BackgroundImageFix"/>
<feColorMatrix in="SourceAlpha" type="matrix" values="0 0 0 0 0 0 0 0 0 0 0 0 0 0 0 0 0 0 127 0" result="hardAlpha"/>
<feOffset dy="4"/>
<feGaussianBlur stdDeviation="2"/>
<feComposite in2="hardAlpha" operator="out"/>
<feColorMatrix type="matrix" values="0 0 0 0 0 0 0 0 0 0 0 0 0 0 0 0 0 0 0.25 0"/>
<feBlend mode="normal" in2="BackgroundImageFix" result="effect1_dropShadow_1488_5788"/>
<feBlend mode="normal" in="SourceGraphic" in2="effect1_dropShadow_1488_5788" result="shape"/>
</filter>
<linearGradient id="paint0_linear_1488_5788" x1="22.5618" y1="16.5805" x2="6.63669" y2="16.6745" gradientUnits="userSpaceOnUse">
<stop stop-color="white"/>
<stop offset="1" stop-color="white"/>
</linearGradient>
</defs>
</svg>
