<svg width="11" height="11" viewBox="0 0 11 11" fill="none" xmlns="http://www.w3.org/2000/svg">
<path fill-rule="evenodd" clip-rule="evenodd" d="M7.15 1.1C6.84624 1.1 6.6 0.853757 6.6 0.55C6.6 0.246243 6.84624 0 7.15 0H11V3.85C11 4.15376 10.7538 4.4 10.45 4.4C10.1462 4.4 9.9 4.15376 9.9 3.85V1.87782L4.78891 6.98891C4.57412 7.2037 4.22588 7.2037 4.01109 6.98891C3.7963 6.77412 3.7963 6.42588 4.01109 6.21109L9.12218 1.1H7.15ZM1.65 2.75C1.50413 2.75 1.36424 2.80795 1.26109 2.91109C1.15795 3.01424 1.1 3.15413 1.1 3.3V9.35C1.1 9.49587 1.15795 9.63576 1.26109 9.73891C1.36424 9.84205 1.50413 9.9 1.65 9.9H7.7C7.84587 9.9 7.98576 9.84205 8.08891 9.73891C8.19205 9.63576 8.25 9.49587 8.25 9.35V6.05C8.25 5.74624 8.49624 5.5 8.8 5.5C9.10376 5.5 9.35 5.74624 9.35 6.05V9.35C9.35 9.78761 9.17616 10.2073 8.86673 10.5167C8.55729 10.8262 8.13761 11 7.7 11H1.65C1.21239 11 0.792709 10.8262 0.483274 10.5167C0.173839 10.2073 0 9.78761 0 9.35V3.3C0 2.86239 0.173839 2.44271 0.483274 2.13327C0.792709 1.82384 1.21239 1.65 1.65 1.65H4.95C5.25376 1.65 5.5 1.89624 5.5 2.2C5.5 2.50376 5.25376 2.75 4.95 2.75H1.65Z" fill="#718096"/>
</svg>
