<svg width="18" height="19" viewBox="0 0 18 19" fill="none" xmlns="http://www.w3.org/2000/svg">
<path d="M9 6.5C7.3425 6.5 6 7.8425 6 9.5C6 11.1575 7.3425 12.5 9 12.5C10.6575 12.5 12 11.1575 12 9.5C12 7.8425 10.6575 6.5 9 6.5ZM15.705 8.75C15.5351 7.22909 14.8531 5.81115 13.771 4.72902C12.6888 3.64689 11.2709 2.96488 9.75 2.795V1.25H8.25V2.795C6.72909 2.96488 5.31115 3.64689 4.22902 4.72902C3.14689 5.81115 2.46488 7.22909 2.295 8.75H0.75V10.25H2.295C2.46488 11.7709 3.14689 13.1888 4.22902 14.271C5.31115 15.3531 6.72909 16.0351 8.25 16.205V17.75H9.75V16.205C11.2709 16.0351 12.6888 15.3531 13.771 14.271C14.8531 13.1888 15.5351 11.7709 15.705 10.25H17.25V8.75H15.705ZM9 14.75C6.0975 14.75 3.75 12.4025 3.75 9.5C3.75 6.5975 6.0975 4.25 9 4.25C11.9025 4.25 14.25 6.5975 14.25 9.5C14.25 12.4025 11.9025 14.75 9 14.75Z" fill="#2D3748"/>
</svg>
