<svg width="134" height="134" viewBox="0 0 134 134" fill="none" xmlns="http://www.w3.org/2000/svg">
<g clip-path="url(#clip0_75_318)">
<path d="M126 -0.00012207H8C3.58172 -0.00012207 0 3.5816 0 7.99988V126C0 130.418 3.58172 134 8 134H126C130.418 134 134 130.418 134 126V7.99988C134 3.5816 130.418 -0.00012207 126 -0.00012207Z" fill="white"/>
<path d="M66.3244 27.8702C45.0243 27.8702 27.7378 45.1567 27.7378 66.4568C27.7378 87.757 45.0243 105.043 66.3244 105.043C87.6245 105.043 104.911 87.757 104.911 66.4568C104.911 45.1567 87.6245 27.8702 66.3244 27.8702Z" fill="#FFE6E2"/>
<path d="M83.081 48.7729L68.8809 91.5189L63.1188 68.7484L40.3351 62.973L83.081 48.7729Z" fill="#FF9A8C"/>
</g>
<defs>
<clipPath id="clip0_75_318">
<rect width="134" height="134" fill="white"/>
</clipPath>
</defs>
</svg>
