<svg width="18" height="18" viewBox="0 0 18 18" fill="none" xmlns="http://www.w3.org/2000/svg">
<g id="MdRoomService">
<path id="Vector" d="M1.5 12.75H16.5V14.25H1.5V12.75ZM10.38 5.8425C10.477 5.6141 10.516 5.36527 10.4935 5.11816C10.471 4.87104 10.3877 4.63333 10.2511 4.42619C10.1145 4.21905 9.92879 4.04891 9.7105 3.93093C9.49221 3.81295 9.24813 3.7508 9 3.75C8.75187 3.7508 8.50779 3.81295 8.2895 3.93093C8.07121 4.04891 7.88548 4.21905 7.74888 4.42619C7.61227 4.63333 7.52901 4.87104 7.50652 5.11816C7.48404 5.36527 7.52302 5.6141 7.62 5.8425C4.6875 6.45 2.4525 8.9475 2.25 12H15.75C15.5475 8.9475 13.3125 6.45 10.38 5.8425Z" fill="#2D3748"/>
</g>
</svg>
