<svg width="15" height="21" viewBox="0 0 15 21" fill="none" xmlns="http://www.w3.org/2000/svg">
<path d="M7.49984 4.6665C5.24234 4.6665 3.4165 6.49234 3.4165 8.74984C3.4165 11.8123 7.49984 16.3332 7.49984 16.3332C7.49984 16.3332 11.5832 11.8123 11.5832 8.74984C11.5832 6.49234 9.75734 4.6665 7.49984 4.6665ZM7.49984 10.2082C7.11306 10.2082 6.74213 10.0545 6.46864 9.78103C6.19515 9.50754 6.0415 9.13661 6.0415 8.74984C6.0415 8.36306 6.19515 7.99213 6.46864 7.71864C6.74213 7.44515 7.11306 7.2915 7.49984 7.2915C7.88661 7.2915 8.25754 7.44515 8.53103 7.71864C8.80452 7.99213 8.95817 8.36306 8.95817 8.74984C8.95817 9.13661 8.80452 9.50754 8.53103 9.78103C8.25754 10.0545 7.88661 10.2082 7.49984 10.2082Z" fill="#FC665D"/>
</svg>
