<svg width="134" height="134" viewBox="0 0 134 134" fill="none" xmlns="http://www.w3.org/2000/svg">
<g id="_1">
<g clip-path="url(#clip0_75_324)">
<path id="Vector" d="M134 -0.00012207H0V134H134V-0.00012207Z" fill="white"/>
<g id="E247, Check in, location, map">
<g id="Group">
<path id="Vector_2" d="M79.1866 35.1762V78.7301C71.1461 78.995 64.8541 85.5652 64.7083 93.6058L53.5814 92.1354V31.8248L79.1734 35.1762H79.1866Z" fill="#CBD5E0"/>
<path id="Vector_3" d="M104.924 31.8248V92.1222L94.8703 93.4601C94.7378 85.2871 88.0352 78.7169 79.8622 78.7169H79.3323V35.1762L104.924 31.8248Z" fill="#E2E8F0"/>
<path id="Vector_4" d="M53.4622 31.8248V92.1222L27.8703 95.4735V35.1762L53.4622 31.8248Z" fill="#E2E8F0"/>
<path id="Vector_5" d="M79.7297 78.7301C87.9027 78.7301 94.6053 85.3003 94.7378 93.4733V93.8707C94.7378 102.176 88.0352 109.011 79.5972 109.011C71.1593 109.011 64.4567 102.309 64.4567 93.8707V93.6057C64.5891 85.5652 71.0269 78.995 78.9349 78.7301H79.7429H79.7297Z" fill="#FF9A8C"/>
<path id="Vector_6" d="M76.3784 102.176C75.8486 102.176 75.3055 101.911 75.0405 101.368L71.6892 96.2815C71.1594 95.4735 71.4243 94.4006 72.0866 94.0032C72.8946 93.4733 73.9676 93.7382 74.365 94.4006L76.3784 97.487L84.9488 85.9626C85.4787 85.1546 86.5516 85.0222 87.3596 85.5653C88.1677 86.0951 88.3001 87.1681 87.757 87.9761L77.7031 101.381C77.4381 101.911 76.895 102.189 76.3652 102.189L76.3784 102.176Z" fill="white"/>
</g>
</g>
</g>
</g>
<defs>
<clipPath id="clip0_75_324">
<rect y="-0.00012207" width="134" height="134" rx="8" fill="white"/>
</clipPath>
</defs>
</svg>
