<svg width="134" height="134" viewBox="0 0 134 134" fill="none" xmlns="http://www.w3.org/2000/svg">
<g id="_1">
<g clip-path="url(#clip0_75_333)">
<path id="Vector" d="M134 -0.00012207H0V134H134V-0.00012207Z" fill="white"/>
<g id="E231, Gps, location, pin">
<g id="Group 86">
<g id="Vector_2" style="mix-blend-mode:plus-darker">
<path d="M66.5743 100.5C73.4331 100.5 78.9933 98.3739 78.9933 95.7514C78.9933 93.1289 73.4331 91.0029 66.5743 91.0029C59.7155 91.0029 54.1553 93.1289 54.1553 95.7514C54.1553 98.3739 59.7155 100.5 66.5743 100.5Z" fill="#CBD5E0"/>
</g>
<g id="Group">
<path id="Vector_3" d="M86.7365 53.1889C86.7365 64.8005 66.2211 97.3733 66.2211 97.3733L49.4277 63.7753C47.6225 60.7331 46.4969 57.0111 46.4969 53.1777C46.4969 41.9004 55.5121 32.6624 66.5666 32.6624C77.621 32.6624 86.7477 41.9115 86.7477 53.1777L86.7365 53.1889ZM78.8468 51.495C78.8468 44.7309 73.431 39.3262 66.6669 39.3262C59.9027 39.3262 54.4869 44.742 54.4869 51.495C54.4869 58.2481 59.9027 63.675 66.6669 63.675C73.431 63.675 78.8468 58.2592 78.8468 51.495Z" fill="#FF9A8C"/>
</g>
</g>
</g>
</g>
</g>
<defs>
<clipPath id="clip0_75_333">
<rect y="-0.00012207" width="134" height="134" rx="8" fill="white"/>
</clipPath>
</defs>
</svg>
