<svg width="22" height="22" viewBox="0 0 22 22" fill="none" xmlns="http://www.w3.org/2000/svg">
<path fill-rule="evenodd" clip-rule="evenodd" d="M1.60291 16.7332C1.60291 16.3099 1.94605 15.9668 2.36935 15.9668H19.2312C19.6545 15.9668 19.9976 16.3099 19.9976 16.7332C19.9976 17.1565 19.6545 17.4997 19.2312 17.4997H2.36935C1.94605 17.4997 1.60291 17.1565 1.60291 16.7332Z" fill="#FFD8D6"/>
<path fill-rule="evenodd" clip-rule="evenodd" d="M3.71233 11.4341C3.34575 11.6457 3.22014 12.1145 3.43179 12.4811L6.32401 17.4905H11.0993L20.0137 12.3438C20.3803 12.1321 20.5059 11.6634 20.2943 11.2968L16.5915 4.88335C16.3798 4.51677 15.9111 4.39116 15.5445 4.60281L3.71233 11.4341Z" fill="url(#paint0_linear_1057_9685)"/>
<defs>
<linearGradient id="paint0_linear_1057_9685" x1="11.863" y1="4.5" x2="11.863" y2="17.4905" gradientUnits="userSpaceOnUse">
<stop offset="0.0572917" stop-color="#FF8F80"/>
<stop offset="1" stop-color="#F5574E"/>
</linearGradient>
</defs>
</svg>
