<svg width="22" height="22" viewBox="0 0 22 22" fill="none" xmlns="http://www.w3.org/2000/svg">
<g clip-path="url(#clip0_1057_7252)">
<path d="M14.2083 12.8333H13.4796L13.2275 12.5813C14.1258 11.5408 14.6667 10.1887 14.6667 8.70833C14.6667 5.4175 11.9992 2.75 8.70833 2.75C5.4175 2.75 2.75 5.4175 2.75 8.70833C2.75 11.9992 5.4175 14.6667 8.70833 14.6667C10.1887 14.6667 11.5408 14.1258 12.5813 13.2321L12.8333 13.4842V14.2083L17.4167 18.7825L18.7825 17.4167L14.2083 12.8333ZM8.70833 12.8333C6.43042 12.8333 4.58333 10.9862 4.58333 8.70833C4.58333 6.43042 6.43042 4.58333 8.70833 4.58333C10.9862 4.58333 12.8333 6.43042 12.8333 8.70833C12.8333 10.9862 10.9862 12.8333 8.70833 12.8333Z" fill="#FC665D"/>
</g>
<defs>
<clipPath id="clip0_1057_7252">
<rect width="22" height="22" fill="white"/>
</clipPath>
</defs>
</svg>
