<svg width="36" height="36" viewBox="0 0 36 36" fill="none" xmlns="http://www.w3.org/2000/svg">
<rect x="0.5" y="0.5" width="35" height="35" rx="3.5" fill="#FDF0F0"/>
<rect x="0.5" y="0.5" width="35" height="35" rx="3.5" stroke="#F44830"/>
<g filter="url(#filter0_d_208_2251)">
<path fill-rule="evenodd" clip-rule="evenodd" d="M10.5 13.625C10.5 13.2798 10.7798 13 11.125 13H24.875C25.2202 13 25.5 13.2798 25.5 13.625C25.5 13.9702 25.2202 14.25 24.875 14.25H11.125C10.7798 14.25 10.5 13.9702 10.5 13.625Z" fill="#F44830"/>
<path fill-rule="evenodd" clip-rule="evenodd" d="M10.5 18C10.5 17.6548 10.7798 17.375 11.125 17.375H24.875C25.2202 17.375 25.5 17.6548 25.5 18C25.5 18.3452 25.2202 18.625 24.875 18.625H11.125C10.7798 18.625 10.5 18.3452 10.5 18Z" fill="#F44830"/>
<path fill-rule="evenodd" clip-rule="evenodd" d="M10.5 22.375C10.5 22.0298 10.7798 21.75 11.125 21.75H24.875C25.2202 21.75 25.5 22.0298 25.5 22.375C25.5 22.7202 25.2202 23 24.875 23H11.125C10.7798 23 10.5 22.7202 10.5 22.375Z" fill="#F44830"/>
<path d="M16.75 13.3125C16.75 14.5206 15.7706 15.5 14.5625 15.5C13.3544 15.5 12.375 14.5206 12.375 13.3125C12.375 12.1044 13.3544 11.125 14.5625 11.125C15.7706 11.125 16.75 12.1044 16.75 13.3125Z" fill="white"/>
<path fill-rule="evenodd" clip-rule="evenodd" d="M14.5625 14.25C15.0803 14.25 15.5 13.8303 15.5 13.3125C15.5 12.7947 15.0803 12.375 14.5625 12.375C14.0447 12.375 13.625 12.7947 13.625 13.3125C13.625 13.8303 14.0447 14.25 14.5625 14.25ZM14.5625 15.5C15.7706 15.5 16.75 14.5206 16.75 13.3125C16.75 12.1044 15.7706 11.125 14.5625 11.125C13.3544 11.125 12.375 12.1044 12.375 13.3125C12.375 14.5206 13.3544 15.5 14.5625 15.5Z" fill="#F44830"/>
<path d="M23.625 17.6875C23.625 18.8956 22.6456 19.875 21.4375 19.875C20.2294 19.875 19.25 18.8956 19.25 17.6875C19.25 16.4794 20.2294 15.5 21.4375 15.5C22.6456 15.5 23.625 16.4794 23.625 17.6875Z" fill="white"/>
<path fill-rule="evenodd" clip-rule="evenodd" d="M21.4375 18.625C21.9553 18.625 22.375 18.2053 22.375 17.6875C22.375 17.1697 21.9553 16.75 21.4375 16.75C20.9197 16.75 20.5 17.1697 20.5 17.6875C20.5 18.2053 20.9197 18.625 21.4375 18.625ZM21.4375 19.875C22.6456 19.875 23.625 18.8956 23.625 17.6875C23.625 16.4794 22.6456 15.5 21.4375 15.5C20.2294 15.5 19.25 16.4794 19.25 17.6875C19.25 18.8956 20.2294 19.875 21.4375 19.875Z" fill="#F44830"/>
<path d="M16.75 22.6875C16.75 23.8956 15.7706 24.875 14.5625 24.875C13.3544 24.875 12.375 23.8956 12.375 22.6875C12.375 21.4794 13.3544 20.5 14.5625 20.5C15.7706 20.5 16.75 21.4794 16.75 22.6875Z" fill="white"/>
<path fill-rule="evenodd" clip-rule="evenodd" d="M14.5625 23.625C15.0803 23.625 15.5 23.2053 15.5 22.6875C15.5 22.1697 15.0803 21.75 14.5625 21.75C14.0447 21.75 13.625 22.1697 13.625 22.6875C13.625 23.2053 14.0447 23.625 14.5625 23.625ZM14.5625 24.875C15.7706 24.875 16.75 23.8956 16.75 22.6875C16.75 21.4794 15.7706 20.5 14.5625 20.5C13.3544 20.5 12.375 21.4794 12.375 22.6875C12.375 23.8956 13.3544 24.875 14.5625 24.875Z" fill="#F44830"/>
</g>
<defs>
<filter id="filter0_d_208_2251" x="6.5" y="11.125" width="23" height="21.75" filterUnits="userSpaceOnUse" color-interpolation-filters="sRGB">
<feFlood flood-opacity="0" result="BackgroundImageFix"/>
<feColorMatrix in="SourceAlpha" type="matrix" values="0 0 0 0 0 0 0 0 0 0 0 0 0 0 0 0 0 0 127 0" result="hardAlpha"/>
<feOffset dy="4"/>
<feGaussianBlur stdDeviation="2"/>
<feComposite in2="hardAlpha" operator="out"/>
<feColorMatrix type="matrix" values="0 0 0 0 0 0 0 0 0 0 0 0 0 0 0 0 0 0 0.25 0"/>
<feBlend mode="normal" in2="BackgroundImageFix" result="effect1_dropShadow_208_2251"/>
<feBlend mode="normal" in="SourceGraphic" in2="effect1_dropShadow_208_2251" result="shape"/>
</filter>
</defs>
</svg>
