<svg width="59" height="78" viewBox="0 0 59 78" fill="none" xmlns="http://www.w3.org/2000/svg">
<g id="Group">
<g id="Vector" style="mix-blend-mode:plus-darker">
<path d="M29.5006 77.33C40.3277 77.33 49.1048 74.0736 49.1048 70.0567C49.1048 66.0398 40.3277 62.7834 29.5006 62.7834C18.6736 62.7834 9.89648 66.0398 9.89648 70.0567C9.89648 74.0736 18.6736 77.33 29.5006 77.33Z" fill="#CBD5E0"/>
</g>
<path id="Vector_2" d="M58.2243 28.193C58.2243 12.6248 45.35 0 29.5008 0C13.6517 0 0.777344 12.6248 0.777344 28.193C0.777344 47.7262 29.5008 70.9082 29.5008 70.9082C29.5008 70.9082 58.2243 48.1154 58.2243 28.193Z" fill="#FF604A"/>
<path id="Vector_3" fill-rule="evenodd" clip-rule="evenodd" d="M33.6447 67.3325L31.5477 43.7127C31.4745 42.1072 32.6449 40.599 33.9373 39.626C36.595 37.607 38.3506 33.8366 38.3506 29.5067C38.3506 23.0362 34.3762 14.8142 29.4751 14.8142C24.5741 14.8142 20.5996 23.0362 20.5996 29.4824C20.5996 33.8609 22.4284 37.68 25.1349 39.699C26.4516 40.672 27.5976 42.2288 27.5245 43.8586L25.525 67.4785C27.9146 69.6677 29.4751 70.9083 29.4751 70.9083C29.4751 70.9083 31.182 69.6191 33.6203 67.3568L33.6447 67.3325Z" fill="url(#paint0_linear_55_5055)"/>
<path id="Vector (Stroke)" fill-rule="evenodd" clip-rule="evenodd" d="M31.7076 18.8473C32.1816 18.3703 32.9535 18.3669 33.4317 18.8398L32.5735 19.7035C33.4317 18.8398 33.4322 18.8403 33.4327 18.8408L33.4338 18.8418L33.4361 18.8441L33.4414 18.8495L33.4552 18.8635L33.4942 18.9043C33.5252 18.9372 33.5658 18.9816 33.6148 19.0379C33.7127 19.1504 33.8439 19.31 33.9974 19.5187C34.3046 19.9362 34.701 20.55 35.0986 21.3749C35.8958 23.029 36.6884 25.5127 36.7912 28.9351C36.896 32.4267 35.9759 34.7545 34.9389 36.2381C34.4259 36.972 33.8975 37.4803 33.482 37.8124C33.2744 37.9783 33.0949 38.1003 32.9594 38.1847C32.8916 38.227 32.8346 38.2599 32.7905 38.2843C32.7684 38.2965 32.7495 38.3066 32.7341 38.3147L32.7135 38.3253L32.7052 38.3294L32.7015 38.3313L32.6998 38.3321C32.699 38.3325 32.6982 38.3329 32.1589 37.2421L32.6982 38.3329C32.0943 38.63 31.3633 38.3826 31.0655 37.7801C30.77 37.1824 31.0119 36.4599 31.6054 36.1584C31.6062 36.158 31.6071 36.1575 31.6083 36.1568C31.6169 36.1521 31.6373 36.1405 31.6678 36.1215C31.7288 36.0835 31.8298 36.016 31.9574 35.9139C32.2124 35.7101 32.5741 35.3685 32.9388 34.8467C33.6574 33.8187 34.4441 32.0112 34.3539 29.0079C34.2617 25.9354 33.5547 23.7852 32.9011 22.429C32.5733 21.7488 32.2564 21.2634 32.0317 20.958C31.9194 20.8053 31.83 20.6975 31.7738 20.6329C31.7457 20.6007 31.7259 20.5792 31.7157 20.5683L31.7082 20.5605C31.2369 20.087 31.2358 19.3221 31.7076 18.8473ZM31.6054 36.1584C31.6095 36.1563 31.6136 36.1543 31.6177 36.1522C31.6178 36.1522 31.618 36.1521 31.6181 36.1521C31.6181 36.1521 31.6181 36.1521 31.618 36.1521L31.6177 36.1522L31.6166 36.1528L31.6139 36.1541L31.6095 36.1563L31.6044 36.159C31.6031 36.1596 31.6034 36.1595 31.6054 36.1584Z" fill="#D7E4F7"/>
</g>
<defs>
<linearGradient id="paint0_linear_55_5055" x1="48.8354" y1="42.7396" x2="7.60333" y2="42.9841" gradientUnits="userSpaceOnUse">
<stop stop-color="white"/>
<stop offset="1" stop-color="white"/>
</linearGradient>
</defs>
</svg>
