<svg width="70" height="44" viewBox="0 0 70 44" fill="none" xmlns="http://www.w3.org/2000/svg">
<path d="M7.04861 20.3962C7.35721 19.4892 8.20895 18.8793 9.16698 18.8793H60.8344C61.7924 18.8793 62.6441 19.4892 62.9527 20.3962L69.8491 40.6643C70.3429 42.1157 69.2639 43.6227 67.7307 43.6227H2.27066C0.737481 43.6227 -0.341579 42.1157 0.152285 40.6643L7.04861 20.3962Z" fill="#E2E8F0"/>
<path fill-rule="evenodd" clip-rule="evenodd" d="M12.1719 30.0268C12.1719 28.7909 13.1737 27.7891 14.4095 27.7891L55.5977 27.7891C56.8335 27.7891 57.8354 28.791 57.8354 30.0268C57.8354 31.2626 56.8335 32.2644 55.5977 32.2644L14.4095 32.2644C13.1737 32.2644 12.1719 31.2626 12.1719 30.0268Z" fill="#CBD5E0"/>
<path fill-rule="evenodd" clip-rule="evenodd" d="M18.5801 32.2933H48.2156L59.4795 14.4095C60.1381 13.3638 59.8243 11.9822 58.7786 11.3235L41.347 0.344543C40.3013 -0.314069 38.9197 -0.000280685 38.2611 1.04541L18.5801 32.2933Z" fill="#F7FAFC"/>
</svg>
