<svg width="24" height="24" viewBox="0 0 24 24" fill="none" xmlns="http://www.w3.org/2000/svg">
<g filter="url(#filter0_d_1802_140)">
<path fill-rule="evenodd" clip-rule="evenodd" d="M8 5.33333C7.29276 5.33333 6.61448 5.61428 6.11438 6.11438C5.61428 6.61448 5.33333 7.29276 5.33333 8C5.33333 8.70724 5.61428 9.38552 6.11438 9.88562C6.36201 10.1332 6.65598 10.3297 6.97951 10.4637C7.30305 10.5977 7.64981 10.6667 8 10.6667H10C10.3682 10.6667 10.6667 10.9651 10.6667 11.3333C10.6667 11.7015 10.3682 12 10 12H8C7.47471 12 6.95457 11.8965 6.46927 11.6955C5.98396 11.4945 5.54301 11.1999 5.17157 10.8284C4.42143 10.0783 4 9.06087 4 8C4 6.93913 4.42143 5.92172 5.17157 5.17157C5.92172 4.42143 6.93913 4 8 4H10C10.3682 4 10.6667 4.29848 10.6667 4.66667C10.6667 5.03486 10.3682 5.33333 10 5.33333H8ZM13.3333 4.66667C13.3333 4.29848 13.6318 4 14 4H16C16.5253 4 17.0454 4.10346 17.5307 4.30448C18.016 4.5055 18.457 4.80014 18.8284 5.17157C19.1999 5.54301 19.4945 5.98396 19.6955 6.46927C19.8965 6.95457 20 7.47471 20 8C20 8.52529 19.8965 9.04543 19.6955 9.53073C19.4945 10.016 19.1999 10.457 18.8284 10.8284C18.457 11.1999 18.016 11.4945 17.5307 11.6955C17.0454 11.8965 16.5253 12 16 12H14C13.6318 12 13.3333 11.7015 13.3333 11.3333C13.3333 10.9651 13.6318 10.6667 14 10.6667H16C16.3502 10.6667 16.697 10.5977 17.0205 10.4637C17.344 10.3297 17.638 10.1332 17.8856 9.88562C18.1332 9.638 18.3297 9.34402 18.4637 9.02049C18.5977 8.69695 18.6667 8.35019 18.6667 8C18.6667 7.64981 18.5977 7.30305 18.4637 6.97951C18.3297 6.65598 18.1332 6.362 17.8856 6.11438C17.638 5.86676 17.344 5.67033 17.0205 5.53632C16.697 5.40231 16.3502 5.33333 16 5.33333H14C13.6318 5.33333 13.3333 5.03486 13.3333 4.66667Z" fill="white"/>
<path fill-rule="evenodd" clip-rule="evenodd" d="M8.66797 8.00004C8.66797 7.63185 8.96645 7.33337 9.33464 7.33337H14.668C15.0362 7.33337 15.3346 7.63185 15.3346 8.00004C15.3346 8.36823 15.0362 8.66671 14.668 8.66671H9.33464C8.96645 8.66671 8.66797 8.36823 8.66797 8.00004Z" fill="white"/>
</g>
<defs>
<filter id="filter0_d_1802_140" x="0" y="0" width="24" height="24" filterUnits="userSpaceOnUse" color-interpolation-filters="sRGB">
<feFlood flood-opacity="0" result="BackgroundImageFix"/>
<feColorMatrix in="SourceAlpha" type="matrix" values="0 0 0 0 0 0 0 0 0 0 0 0 0 0 0 0 0 0 127 0" result="hardAlpha"/>
<feOffset dy="4"/>
<feGaussianBlur stdDeviation="2"/>
<feComposite in2="hardAlpha" operator="out"/>
<feColorMatrix type="matrix" values="0 0 0 0 0 0 0 0 0 0 0 0 0 0 0 0 0 0 0.25 0"/>
<feBlend mode="normal" in2="BackgroundImageFix" result="effect1_dropShadow_1802_140"/>
<feBlend mode="normal" in="SourceGraphic" in2="effect1_dropShadow_1802_140" result="shape"/>
</filter>
</defs>
</svg>
