<svg width="14" height="15" viewBox="0 0 14 15" fill="none" xmlns="http://www.w3.org/2000/svg">
<path d="M7.875 3.70833C8.51667 3.70833 9.04167 3.18333 9.04167 2.54167C9.04167 1.9 8.51667 1.375 7.875 1.375C7.23333 1.375 6.70833 1.9 6.70833 2.54167C6.70833 3.18333 7.23333 3.70833 7.875 3.70833ZM5.71667 5.69167L4.08333 13.9167H5.30833L6.35833 9.25L7.58333 10.4167V13.9167H8.75V9.54167L7.525 8.375L7.875 6.625C8.63333 7.5 9.8 8.08333 11.0833 8.08333V6.91667C9.975 6.91667 9.04167 6.33333 8.575 5.51667L7.99167 4.58333C7.75833 4.23333 7.40833 4 7 4C6.825 4 6.70833 4.05833 6.53333 4.05833L3.5 5.34167V8.08333H4.66667V6.1L5.71667 5.69167Z" fill="#718096"/>
</svg>
